<svg width="156" height="37" viewBox="0 0 156 37" fill="none" xmlns="http://www.w3.org/2000/svg">
<g opacity="0.5">
<path d="M7.07 5.52H4.466V8.068H3.584V5.52H0.98V4.694H3.584V2.132H4.466V4.694H7.07V5.52ZM15.56 0.199999V0.913999L11.458 10H10.366L14.398 1.096H9.35802V2.93H8.36402V0.199999H15.56ZM27.4682 0.199999V0.913999L23.3662 10H22.2742L26.3062 1.096H21.2662V2.93H20.2722V0.199999H27.4682ZM35.7124 0.199999V0.913999L31.6104 10H30.5184L34.5504 1.096H29.5104V2.93H28.5164V0.199999H35.7124ZM43.9565 0.199999V0.913999L39.8545 10H38.7625L42.7945 1.096H37.7545V2.93H36.7605V0.199999H43.9565ZM55.8647 0.199999V0.913999L51.7627 10H50.6707L54.7027 1.096H49.6627V2.93H48.6687V0.199999H55.8647ZM64.1088 0.199999V0.913999L60.0068 10H58.9148L62.9468 1.096H57.9068V2.93H56.9128V0.199999H64.1088ZM72.353 0.199999V0.913999L68.251 10H67.159L71.191 1.096H66.151V2.93H65.157V0.199999H72.353ZM84.2612 0.199999V0.913999L80.1592 10H79.0672L83.0992 1.096H78.0592V2.93H77.0652V0.199999H84.2612ZM92.5053 0.199999V0.913999L88.4033 10H87.3113L91.3433 1.096H86.3033V2.93H85.3093V0.199999H92.5053ZM104.414 0.199999V0.913999L100.312 10H99.2195L103.252 1.096H98.2115V2.93H97.2175V0.199999H104.414ZM112.658 0.199999V0.913999L108.556 10H107.464L111.496 1.096H106.456V2.93H105.462V0.199999H112.658ZM4.438 34.07C3.71 34.07 3.05667 33.9113 2.478 33.594C1.90867 33.2767 1.46067 32.8333 1.134 32.264C0.807333 31.6853 0.644 31.0367 0.644 30.318C0.644 29.5993 0.807333 28.9553 1.134 28.386C1.46067 27.8167 1.90867 27.3733 2.478 27.056C3.05667 26.7387 3.71 26.58 4.438 26.58C5.07267 26.58 5.63733 26.706 6.132 26.958C6.636 27.2007 7.03267 27.56 7.322 28.036L6.58 28.54C6.33733 28.176 6.02933 27.9053 5.656 27.728C5.28267 27.5413 4.87667 27.448 4.438 27.448C3.906 27.448 3.42533 27.5693 2.996 27.812C2.576 28.0453 2.24467 28.3813 2.002 28.82C1.76867 29.2587 1.652 29.758 1.652 30.318C1.652 30.8873 1.76867 31.3913 2.002 31.83C2.24467 32.2593 2.576 32.5953 2.996 32.838C3.42533 33.0713 3.906 33.188 4.438 33.188C4.87667 33.188 5.28267 33.0993 5.656 32.922C6.02933 32.7447 6.33733 32.474 6.58 32.11L7.322 32.614C7.03267 33.09 6.636 33.454 6.132 33.706C5.628 33.9487 5.06333 34.07 4.438 34.07ZM12.9173 26.58C13.8413 26.58 14.574 26.8507 15.1153 27.392C15.666 27.924 15.9413 28.7033 15.9413 29.73V34H14.9473V29.828C14.9473 29.0627 14.756 28.4793 14.3733 28.078C13.9906 27.6767 13.4446 27.476 12.7353 27.476C11.942 27.476 11.312 27.714 10.8453 28.19C10.388 28.6567 10.1593 29.3053 10.1593 30.136V34H9.1653V23.612H10.1593V27.924C10.43 27.4947 10.8033 27.1633 11.2793 26.93C11.7553 26.6967 12.3013 26.58 12.9173 26.58ZM21.6773 34.07C20.9679 34.07 20.3286 33.9113 19.7593 33.594C19.1899 33.2673 18.7419 32.8193 18.4153 32.25C18.0886 31.6807 17.9253 31.0367 17.9253 30.318C17.9253 29.5993 18.0886 28.9553 18.4153 28.386C18.7419 27.8167 19.1899 27.3733 19.7593 27.056C20.3286 26.7387 20.9679 26.58 21.6773 26.58C22.3866 26.58 23.0259 26.7387 23.5953 27.056C24.1646 27.3733 24.6079 27.8167 24.9253 28.386C25.2519 28.9553 25.4153 29.5993 25.4153 30.318C25.4153 31.0367 25.2519 31.6807 24.9253 32.25C24.6079 32.8193 24.1646 33.2673 23.5953 33.594C23.0259 33.9113 22.3866 34.07 21.6773 34.07ZM21.6773 33.188C22.1999 33.188 22.6666 33.0713 23.0773 32.838C23.4973 32.5953 23.8239 32.2547 24.0573 31.816C24.2906 31.3773 24.4073 30.878 24.4073 30.318C24.4073 29.758 24.2906 29.2587 24.0573 28.82C23.8239 28.3813 23.4973 28.0453 23.0773 27.812C22.6666 27.5693 22.1999 27.448 21.6773 27.448C21.1546 27.448 20.6833 27.5693 20.2633 27.812C19.8526 28.0453 19.5259 28.3813 19.2833 28.82C19.0499 29.2587 18.9333 29.758 18.9333 30.318C18.9333 30.878 19.0499 31.3773 19.2833 31.816C19.5259 32.2547 19.8526 32.5953 20.2633 32.838C20.6833 33.0713 21.1546 33.188 21.6773 33.188ZM28.3966 28.078C28.6299 27.5833 28.9753 27.21 29.4326 26.958C29.8993 26.706 30.4733 26.58 31.1546 26.58V27.546L30.9166 27.532C30.1419 27.532 29.5353 27.77 29.0966 28.246C28.6579 28.722 28.4386 29.3893 28.4386 30.248V34H27.4446V26.636H28.3966V28.078ZM36.7064 26.58C37.6304 26.58 38.363 26.8507 38.9044 27.392C39.455 27.924 39.7304 28.7033 39.7304 29.73V34H38.7364V29.828C38.7364 29.0627 38.545 28.4793 38.1624 28.078C37.7797 27.6767 37.2337 27.476 36.5244 27.476C35.731 27.476 35.101 27.714 34.6344 28.19C34.177 28.6567 33.9484 29.3053 33.9484 30.136V34H32.9544V26.636H33.9064V27.994C34.177 27.546 34.5504 27.2007 35.0264 26.958C35.5117 26.706 36.0717 26.58 36.7064 26.58ZM48.4803 26.636L44.7983 34.882C44.4996 35.5727 44.1543 36.0627 43.7623 36.352C43.3703 36.6413 42.8989 36.786 42.3483 36.786C41.9936 36.786 41.6623 36.73 41.3543 36.618C41.0463 36.506 40.7802 36.338 40.5562 36.114L41.0183 35.372C41.3916 35.7453 41.8396 35.932 42.3623 35.932C42.6983 35.932 42.9829 35.8387 43.2163 35.652C43.4589 35.4653 43.6829 35.148 43.8883 34.7L44.2103 33.986L40.9203 26.636H41.9563L44.7283 32.894L47.5003 26.636H48.4803ZM49.8801 26.636H50.8741V34H49.8801V26.636ZM50.3841 25.026C50.1788 25.026 50.0061 24.956 49.8661 24.816C49.7261 24.676 49.6561 24.508 49.6561 24.312C49.6561 24.1253 49.7261 23.962 49.8661 23.822C50.0061 23.682 50.1788 23.612 50.3841 23.612C50.5895 23.612 50.7621 23.682 50.9021 23.822C51.0421 23.9527 51.1121 24.1113 51.1121 24.298C51.1121 24.5033 51.0421 24.676 50.9021 24.816C50.7621 24.956 50.5895 25.026 50.3841 25.026ZM56.2159 26.58C57.1772 26.58 57.9146 26.8227 58.4279 27.308C58.9412 27.784 59.1979 28.4933 59.1979 29.436V34H58.2459V32.852C58.0219 33.2347 57.6906 33.5333 57.2519 33.748C56.8226 33.9627 56.3092 34.07 55.7119 34.07C54.8906 34.07 54.2372 33.874 53.7519 33.482C53.2666 33.09 53.0239 32.572 53.0239 31.928C53.0239 31.3027 53.2479 30.7987 53.6959 30.416C54.1532 30.0333 54.8766 29.842 55.8659 29.842H58.2039V29.394C58.2039 28.7593 58.0266 28.2787 57.6719 27.952C57.3172 27.616 56.7992 27.448 56.1179 27.448C55.6512 27.448 55.2032 27.5273 54.7739 27.686C54.3446 27.8353 53.9759 28.0453 53.6679 28.316L53.2199 27.574C53.5932 27.2567 54.0412 27.014 54.5639 26.846C55.0866 26.6687 55.6372 26.58 56.2159 26.58ZM55.8659 33.286C56.4259 33.286 56.9066 33.16 57.3079 32.908C57.7092 32.6467 58.0079 32.2733 58.2039 31.788V30.584H55.8939C54.6339 30.584 54.0039 31.0227 54.0039 31.9C54.0039 32.3293 54.1672 32.67 54.4939 32.922C54.8206 33.1647 55.2779 33.286 55.8659 33.286ZM67.949 26.636L64.673 34H63.651L60.389 26.636H61.425L64.183 32.908L66.969 26.636H67.949ZM75.1195 24.116C76.3702 24.116 77.4855 24.3773 78.4655 24.9C79.4548 25.4133 80.2248 26.1413 80.7755 27.084C81.3262 28.0173 81.6015 29.086 81.6015 30.29C81.6015 31.4753 81.3962 32.404 80.9855 33.076C80.5748 33.7387 80.0055 34.07 79.2775 34.07C78.8202 34.07 78.4468 33.9347 78.1575 33.664C77.8775 33.3933 77.7235 33.02 77.6955 32.544C77.4155 33.0293 77.0328 33.4073 76.5475 33.678C76.0622 33.9393 75.5115 34.07 74.8955 34.07C74.2422 34.07 73.6495 33.916 73.1175 33.608C72.5948 33.2907 72.1795 32.8567 71.8715 32.306C71.5728 31.7553 71.4235 31.1347 71.4235 30.444C71.4235 29.7533 71.5728 29.1373 71.8715 28.596C72.1795 28.0453 72.5948 27.616 73.1175 27.308C73.6495 27 74.2422 26.846 74.8955 26.846C75.4928 26.846 76.0295 26.9767 76.5055 27.238C76.9908 27.49 77.3782 27.8493 77.6675 28.316V26.902H78.5775V32.208C78.5775 32.5813 78.6568 32.852 78.8155 33.02C78.9742 33.188 79.1842 33.272 79.4455 33.272C79.8842 33.272 80.2295 33.0107 80.4815 32.488C80.7428 31.9653 80.8735 31.2373 80.8735 30.304C80.8735 29.2213 80.6308 28.2693 80.1455 27.448C79.6602 26.6173 78.9788 25.9733 78.1015 25.516C77.2335 25.0587 76.2395 24.83 75.1195 24.83C73.9902 24.83 72.9868 25.068 72.1095 25.544C71.2415 26.0107 70.5648 26.6733 70.0795 27.532C69.5942 28.3813 69.3515 29.352 69.3515 30.444C69.3515 31.536 69.5895 32.5113 70.0655 33.37C70.5508 34.2287 71.2228 34.896 72.0815 35.372C72.9495 35.848 73.9435 36.086 75.0635 36.086C75.5022 36.086 75.9595 36.0347 76.4355 35.932C76.9208 35.8293 77.3595 35.6753 77.7515 35.47L77.9895 36.156C77.5882 36.3613 77.1215 36.52 76.5895 36.632C76.0668 36.744 75.5582 36.8 75.0635 36.8C73.7942 36.8 72.6695 36.5293 71.6895 35.988C70.7095 35.4467 69.9442 34.6953 69.3935 33.734C68.8522 32.7633 68.5815 31.6667 68.5815 30.444C68.5815 29.212 68.8568 28.12 69.4075 27.168C69.9582 26.2067 70.7282 25.46 71.7175 24.928C72.7162 24.3867 73.8502 24.116 75.1195 24.116ZM75.0215 33.258C75.5255 33.258 75.9782 33.1413 76.3795 32.908C76.7808 32.6747 77.0982 32.348 77.3315 31.928C77.5648 31.4987 77.6815 31.004 77.6815 30.444C77.6815 29.8933 77.5648 29.408 77.3315 28.988C77.0982 28.5587 76.7808 28.232 76.3795 28.008C75.9782 27.7747 75.5255 27.658 75.0215 27.658C74.5082 27.658 74.0462 27.7747 73.6355 28.008C73.2342 28.2413 72.9168 28.568 72.6835 28.988C72.4595 29.408 72.3475 29.8933 72.3475 30.444C72.3475 30.9947 72.4595 31.4847 72.6835 31.914C72.9168 32.334 73.2342 32.6653 73.6355 32.908C74.0462 33.1413 74.5082 33.258 75.0215 33.258ZM90.5224 26.636V33.104C90.5224 34.3547 90.2144 35.2787 89.5984 35.876C88.9917 36.4827 88.0724 36.786 86.8404 36.786C86.159 36.786 85.5104 36.6833 84.8944 36.478C84.2877 36.282 83.793 36.0067 83.4104 35.652L83.9144 34.896C84.269 35.2133 84.6984 35.4607 85.2024 35.638C85.7157 35.8153 86.2524 35.904 86.8124 35.904C87.7457 35.904 88.4317 35.6847 88.8704 35.246C89.309 34.8167 89.5284 34.1447 89.5284 33.23V32.292C89.2204 32.7587 88.8144 33.1133 88.3104 33.356C87.8157 33.5987 87.265 33.72 86.6584 33.72C85.9677 33.72 85.3377 33.5707 84.7684 33.272C84.2084 32.964 83.765 32.5393 83.4384 31.998C83.121 31.4473 82.9624 30.8267 82.9624 30.136C82.9624 29.4453 83.121 28.8293 83.4384 28.288C83.765 27.7467 84.2084 27.3267 84.7684 27.028C85.3284 26.7293 85.9584 26.58 86.6584 26.58C87.2837 26.58 87.8484 26.706 88.3524 26.958C88.8564 27.21 89.2624 27.574 89.5704 28.05V26.636H90.5224ZM86.7564 32.838C87.2884 32.838 87.769 32.726 88.1984 32.502C88.6277 32.2687 88.959 31.9467 89.1924 31.536C89.435 31.1253 89.5564 30.6587 89.5564 30.136C89.5564 29.6133 89.435 29.1513 89.1924 28.75C88.959 28.3393 88.6277 28.022 88.1984 27.798C87.7784 27.5647 87.2977 27.448 86.7564 27.448C86.2244 27.448 85.7437 27.56 85.3144 27.784C84.8944 28.008 84.563 28.3253 84.3204 28.736C84.087 29.1467 83.9704 29.6133 83.9704 30.136C83.9704 30.6587 84.087 31.1253 84.3204 31.536C84.563 31.9467 84.8944 32.2687 85.3144 32.502C85.7437 32.726 86.2244 32.838 86.7564 32.838ZM102.486 26.58C103.41 26.58 104.133 26.846 104.656 27.378C105.188 27.91 105.454 28.694 105.454 29.73V34H104.46V29.828C104.46 29.0627 104.273 28.4793 103.9 28.078C103.536 27.6767 103.018 27.476 102.346 27.476C101.581 27.476 100.979 27.714 100.54 28.19C100.101 28.6567 99.882 29.3053 99.882 30.136V34H98.888V29.828C98.888 29.0627 98.7013 28.4793 98.328 28.078C97.964 27.6767 97.4413 27.476 96.76 27.476C96.004 27.476 95.402 27.714 94.954 28.19C94.5153 28.6567 94.296 29.3053 94.296 30.136V34H93.302V26.636H94.254V27.98C94.5153 27.532 94.8793 27.1867 95.346 26.944C95.8127 26.7013 96.3493 26.58 96.956 26.58C97.572 26.58 98.104 26.7107 98.552 26.972C99.0093 27.2333 99.35 27.6207 99.574 28.134C99.8447 27.6487 100.232 27.2707 100.736 27C101.249 26.72 101.833 26.58 102.486 26.58ZM110.726 26.58C111.687 26.58 112.424 26.8227 112.938 27.308C113.451 27.784 113.708 28.4933 113.708 29.436V34H112.756V32.852C112.532 33.2347 112.2 33.5333 111.762 33.748C111.332 33.9627 110.819 34.07 110.222 34.07C109.4 34.07 108.747 33.874 108.262 33.482C107.776 33.09 107.534 32.572 107.534 31.928C107.534 31.3027 107.758 30.7987 108.206 30.416C108.663 30.0333 109.386 29.842 110.376 29.842H112.714V29.394C112.714 28.7593 112.536 28.2787 112.182 27.952C111.827 27.616 111.309 27.448 110.628 27.448C110.161 27.448 109.713 27.5273 109.284 27.686C108.854 27.8353 108.486 28.0453 108.178 28.316L107.73 27.574C108.103 27.2567 108.551 27.014 109.074 26.846C109.596 26.6687 110.147 26.58 110.726 26.58ZM110.376 33.286C110.936 33.286 111.416 33.16 111.818 32.908C112.219 32.6467 112.518 32.2733 112.714 31.788V30.584H110.404C109.144 30.584 108.514 31.0227 108.514 31.9C108.514 32.3293 108.677 32.67 109.004 32.922C109.33 33.1647 109.788 33.286 110.376 33.286ZM116.407 26.636H117.401V34H116.407V26.636ZM116.911 25.026C116.706 25.026 116.533 24.956 116.393 24.816C116.253 24.676 116.183 24.508 116.183 24.312C116.183 24.1253 116.253 23.962 116.393 23.822C116.533 23.682 116.706 23.612 116.911 23.612C117.117 23.612 117.289 23.682 117.429 23.822C117.569 23.9527 117.639 24.1113 117.639 24.298C117.639 24.5033 117.569 24.676 117.429 24.816C117.289 24.956 117.117 25.026 116.911 25.026ZM120.167 23.612H121.161V34H120.167V23.612ZM124.025 34.07C123.82 34.07 123.642 33.9953 123.493 33.846C123.353 33.6967 123.283 33.5147 123.283 33.3C123.283 33.0853 123.353 32.908 123.493 32.768C123.642 32.6187 123.82 32.544 124.025 32.544C124.23 32.544 124.408 32.6187 124.557 32.768C124.706 32.908 124.781 33.0853 124.781 33.3C124.781 33.5147 124.706 33.6967 124.557 33.846C124.408 33.9953 124.23 34.07 124.025 34.07ZM129.741 34.07C129.013 34.07 128.359 33.9113 127.781 33.594C127.211 33.2767 126.763 32.8333 126.437 32.264C126.11 31.6853 125.947 31.0367 125.947 30.318C125.947 29.5993 126.11 28.9553 126.437 28.386C126.763 27.8167 127.211 27.3733 127.781 27.056C128.359 26.7387 129.013 26.58 129.741 26.58C130.375 26.58 130.94 26.706 131.435 26.958C131.939 27.2007 132.335 27.56 132.625 28.036L131.883 28.54C131.64 28.176 131.332 27.9053 130.959 27.728C130.585 27.5413 130.179 27.448 129.741 27.448C129.209 27.448 128.728 27.5693 128.299 27.812C127.879 28.0453 127.547 28.3813 127.305 28.82C127.071 29.2587 126.955 29.758 126.955 30.318C126.955 30.8873 127.071 31.3913 127.305 31.83C127.547 32.2593 127.879 32.5953 128.299 32.838C128.728 33.0713 129.209 33.188 129.741 33.188C130.179 33.188 130.585 33.0993 130.959 32.922C131.332 32.7447 131.64 32.474 131.883 32.11L132.625 32.614C132.335 33.09 131.939 33.454 131.435 33.706C130.931 33.9487 130.366 34.07 129.741 34.07ZM137.464 34.07C136.755 34.07 136.116 33.9113 135.546 33.594C134.977 33.2673 134.529 32.8193 134.202 32.25C133.876 31.6807 133.712 31.0367 133.712 30.318C133.712 29.5993 133.876 28.9553 134.202 28.386C134.529 27.8167 134.977 27.3733 135.546 27.056C136.116 26.7387 136.755 26.58 137.464 26.58C138.174 26.58 138.813 26.7387 139.382 27.056C139.952 27.3733 140.395 27.8167 140.712 28.386C141.039 28.9553 141.202 29.5993 141.202 30.318C141.202 31.0367 141.039 31.6807 140.712 32.25C140.395 32.8193 139.952 33.2673 139.382 33.594C138.813 33.9113 138.174 34.07 137.464 34.07ZM137.464 33.188C137.987 33.188 138.454 33.0713 138.864 32.838C139.284 32.5953 139.611 32.2547 139.844 31.816C140.078 31.3773 140.194 30.878 140.194 30.318C140.194 29.758 140.078 29.2587 139.844 28.82C139.611 28.3813 139.284 28.0453 138.864 27.812C138.454 27.5693 137.987 27.448 137.464 27.448C136.942 27.448 136.47 27.5693 136.05 27.812C135.64 28.0453 135.313 28.3813 135.07 28.82C134.837 29.2587 134.72 29.758 134.72 30.318C134.72 30.878 134.837 31.3773 135.07 31.816C135.313 32.2547 135.64 32.5953 136.05 32.838C136.47 33.0713 136.942 33.188 137.464 33.188ZM152.416 26.58C153.34 26.58 154.063 26.846 154.586 27.378C155.118 27.91 155.384 28.694 155.384 29.73V34H154.39V29.828C154.39 29.0627 154.203 28.4793 153.83 28.078C153.466 27.6767 152.948 27.476 152.276 27.476C151.51 27.476 150.908 27.714 150.47 28.19C150.031 28.6567 149.812 29.3053 149.812 30.136V34H148.818V29.828C148.818 29.0627 148.631 28.4793 148.258 28.078C147.894 27.6767 147.371 27.476 146.69 27.476C145.934 27.476 145.332 27.714 144.884 28.19C144.445 28.6567 144.226 29.3053 144.226 30.136V34H143.232V26.636H144.184V27.98C144.445 27.532 144.809 27.1867 145.276 26.944C145.742 26.7013 146.279 26.58 146.886 26.58C147.502 26.58 148.034 26.7107 148.482 26.972C148.939 27.2333 149.28 27.6207 149.504 28.134C149.774 27.6487 150.162 27.2707 150.666 27C151.179 26.72 151.762 26.58 152.416 26.58Z" fill="white"/>
<path d="M0 35.4H156.7V36.1H0V35.4Z" fill="white"/>
</g>
</svg>
