<svg width="14" height="35" viewBox="0 0 14 35" fill="none" xmlns="http://www.w3.org/2000/svg">
<path d="M5.852 10.168C4.85333 10.168 3.948 9.95333 3.136 9.524C2.33333 9.08533 1.69867 8.48333 1.232 7.718C0.774667 6.94333 0.546 6.07067 0.546 5.1C0.546 4.12933 0.774667 3.26133 1.232 2.496C1.69867 1.72133 2.33333 1.11933 3.136 0.69C3.948 0.251333 4.858 0.0319998 5.866 0.0319998C6.71533 0.0319998 7.48067 0.181333 8.162 0.48C8.85267 0.778667 9.43133 1.208 9.898 1.768L8.442 3.112C7.77933 2.34667 6.958 1.964 5.978 1.964C5.37133 1.964 4.83 2.09933 4.354 2.37C3.878 2.63133 3.50467 3 3.234 3.476C2.97267 3.952 2.842 4.49333 2.842 5.1C2.842 5.70667 2.97267 6.248 3.234 6.724C3.50467 7.2 3.878 7.57333 4.354 7.844C4.83 8.10533 5.37133 8.236 5.978 8.236C6.958 8.236 7.77933 7.84867 8.442 7.074L9.898 8.418C9.43133 8.98733 8.85267 9.42133 8.162 9.72C7.47133 10.0187 6.70133 10.168 5.852 10.168ZM11.9922 5.086C11.6095 5.086 11.2875 4.95533 11.0262 4.694C10.7649 4.43267 10.6342 4.106 10.6342 3.714C10.6342 3.31267 10.7649 2.99067 11.0262 2.748C11.2875 2.496 11.6095 2.37 11.9922 2.37C12.3749 2.37 12.6969 2.496 12.9582 2.748C13.2195 2.99067 13.3502 3.31267 13.3502 3.714C13.3502 4.106 13.2195 4.43267 12.9582 4.694C12.6969 4.95533 12.3749 5.086 11.9922 5.086ZM11.9922 10.112C11.6095 10.112 11.2875 9.98133 11.0262 9.72C10.7649 9.45867 10.6342 9.132 10.6342 8.74C10.6342 8.33867 10.7649 8.01667 11.0262 7.774C11.2875 7.522 11.6095 7.396 11.9922 7.396C12.3749 7.396 12.6969 7.522 12.9582 7.774C13.2195 8.01667 13.3502 8.33867 13.3502 8.74C13.3502 9.132 13.2195 9.45867 12.9582 9.72C12.6969 9.98133 12.3749 10.112 11.9922 10.112ZM8.75 32.18V34H1.162V24.2H8.568V26.02H3.416V28.148H7.966V29.912H3.416V32.18H8.75ZM11.1719 29.086C10.7892 29.086 10.4672 28.9553 10.2059 28.694C9.94456 28.4327 9.81389 28.106 9.81389 27.714C9.81389 27.3127 9.94456 26.9907 10.2059 26.748C10.4672 26.496 10.7892 26.37 11.1719 26.37C11.5546 26.37 11.8766 26.496 12.1379 26.748C12.3992 26.9907 12.5299 27.3127 12.5299 27.714C12.5299 28.106 12.3992 28.4327 12.1379 28.694C11.8766 28.9553 11.5546 29.086 11.1719 29.086ZM11.1719 34.112C10.7892 34.112 10.4672 33.9813 10.2059 33.72C9.94456 33.4587 9.81389 33.132 9.81389 32.74C9.81389 32.3387 9.94456 32.0167 10.2059 31.774C10.4672 31.522 10.7892 31.396 11.1719 31.396C11.5546 31.396 11.8766 31.522 12.1379 31.774C12.3992 32.0167 12.5299 32.3387 12.5299 32.74C12.5299 33.132 12.3992 33.4587 12.1379 33.72C11.8766 33.9813 11.5546 34.112 11.1719 34.112Z" fill="white"/>
</svg>
